<mxfile host="65bd71144e">
    <diagram name="Page-1" id="52a04d89-c75d-2922-d76d-85b35f80e030">
        <mxGraphModel dx="841" dy="555" grid="1" gridSize="10" guides="1" tooltips="1" connect="1" arrows="1" fold="1" page="1" pageScale="1" pageWidth="1100" pageHeight="850" background="none" math="0" shadow="0">
            <root>
                <mxCell id="0"/>
                <mxCell id="1" parent="0"/>
                <mxCell id="1fdf3b25b50cf41e-27" style="edgeStyle=none;html=1;labelBackgroundColor=none;startFill=0;startSize=8;endFill=1;endSize=8;fontFamily=Verdana;fontSize=12;entryX=0;entryY=0.75;entryDx=0;entryDy=0;" parent="1" target="1fdf3b25b50cf41e-1" edge="1">
                    <mxGeometry relative="1" as="geometry">
                        <mxPoint x="300" y="149.00222222222217" as="sourcePoint"/>
                        <mxPoint x="440" y="149.52074074074076" as="targetPoint"/>
                    </mxGeometry>
                </mxCell>
                <mxCell id="17472293e6e8944d-30" value="input(click)" style="whiteSpace=wrap;html=1;rounded=0;shadow=0;comic=0;labelBackgroundColor=none;strokeWidth=1;fontFamily=Verdana;fontSize=12;align=center;" parent="1" vertex="1">
                    <mxGeometry x="190" y="130" width="110" height="39" as="geometry"/>
                </mxCell>
                <mxCell id="1fdf3b25b50cf41e-28" style="edgeStyle=none;html=1;labelBackgroundColor=none;startFill=0;startSize=8;endFill=1;endSize=8;fontFamily=Verdana;fontSize=12;" parent="1" target="6nQL7Iius_xLlvTY1DOX-12" edge="1">
                    <mxGeometry relative="1" as="geometry">
                        <mxPoint x="610" y="83" as="sourcePoint"/>
                        <mxPoint x="710" y="90" as="targetPoint"/>
                    </mxGeometry>
                </mxCell>
                <mxCell id="1fdf3b25b50cf41e-1" value="clip list&amp;nbsp;&amp;nbsp;" style="swimlane;html=1;fontStyle=0;childLayout=stackLayout;horizontal=1;startSize=32;fillColor=#60a917;horizontalStack=0;resizeParent=1;resizeLast=0;collapsible=1;marginBottom=0;swimlaneFillColor=#ffffff;align=center;rounded=1;shadow=0;comic=0;labelBackgroundColor=none;strokeWidth=1;fontFamily=Verdana;fontSize=12;fontColor=#ffffff;strokeColor=#2D7600;" parent="1" vertex="1">
                    <mxGeometry x="464" y="58" width="140" height="52" as="geometry"/>
                </mxCell>
                <mxCell id="6nQL7Iius_xLlvTY1DOX-2" style="edgeStyle=orthogonalEdgeStyle;rounded=0;orthogonalLoop=1;jettySize=auto;html=1;exitX=0.75;exitY=0;exitDx=0;exitDy=0;entryX=1;entryY=0;entryDx=0;entryDy=0;" parent="1" source="1fdf3b25b50cf41e-1" target="1fdf3b25b50cf41e-1" edge="1">
                    <mxGeometry relative="1" as="geometry"/>
                </mxCell>
                <mxCell id="6nQL7Iius_xLlvTY1DOX-3" value="Actor" style="shape=umlActor;verticalLabelPosition=bottom;verticalAlign=top;html=1;outlineConnect=0;" parent="1" vertex="1">
                    <mxGeometry x="60" y="199" width="30" height="60" as="geometry"/>
                </mxCell>
                <mxCell id="6nQL7Iius_xLlvTY1DOX-4" value="input(search)" style="whiteSpace=wrap;html=1;rounded=0;shadow=0;comic=0;labelBackgroundColor=none;strokeWidth=1;fontFamily=Verdana;fontSize=12;align=center;" parent="1" vertex="1">
                    <mxGeometry x="190" y="230" width="110" height="39" as="geometry"/>
                </mxCell>
                <mxCell id="6nQL7Iius_xLlvTY1DOX-6" value="" style="endArrow=classic;html=1;rounded=0;entryX=0;entryY=0.5;entryDx=0;entryDy=0;" parent="1" target="6nQL7Iius_xLlvTY1DOX-4" edge="1">
                    <mxGeometry width="50" height="50" relative="1" as="geometry">
                        <mxPoint x="120" y="250" as="sourcePoint"/>
                        <mxPoint x="150" y="310" as="targetPoint"/>
                    </mxGeometry>
                </mxCell>
                <mxCell id="6nQL7Iius_xLlvTY1DOX-7" value="" style="endArrow=classic;html=1;rounded=0;" parent="1" edge="1">
                    <mxGeometry width="50" height="50" relative="1" as="geometry">
                        <mxPoint x="120" y="200" as="sourcePoint"/>
                        <mxPoint x="180" y="160" as="targetPoint"/>
                    </mxGeometry>
                </mxCell>
                <mxCell id="6nQL7Iius_xLlvTY1DOX-8" style="edgeStyle=none;html=1;labelBackgroundColor=none;startFill=0;startSize=8;endFill=1;endSize=8;fontFamily=Verdana;fontSize=12;" parent="1" edge="1">
                    <mxGeometry relative="1" as="geometry">
                        <mxPoint x="300" y="252.00222222222214" as="sourcePoint"/>
                        <mxPoint x="470" y="250" as="targetPoint"/>
                    </mxGeometry>
                </mxCell>
                <mxCell id="6nQL7Iius_xLlvTY1DOX-9" value="news list" style="swimlane;html=1;fontStyle=0;childLayout=stackLayout;horizontal=1;startSize=27;fillColor=#6a00ff;horizontalStack=0;resizeParent=1;resizeLast=0;collapsible=1;marginBottom=0;swimlaneFillColor=#ffffff;align=center;rounded=1;shadow=0;comic=0;labelBackgroundColor=none;strokeWidth=1;fontFamily=Verdana;fontSize=12;fontColor=#ffffff;strokeColor=#3700CC;" parent="1" vertex="1">
                    <mxGeometry x="470" y="223.5" width="140" height="52" as="geometry"/>
                </mxCell>
                <mxCell id="6nQL7Iius_xLlvTY1DOX-11" value="output" style="rounded=1;whiteSpace=wrap;html=1;" parent="1" vertex="1">
                    <mxGeometry x="800" y="223.5" width="120" height="60" as="geometry"/>
                </mxCell>
                <mxCell id="6nQL7Iius_xLlvTY1DOX-12" value="&#10;&lt;span style=&quot;color: rgb(0, 0, 0); font-family: Helvetica; font-size: 12px; font-style: normal; font-variant-ligatures: normal; font-variant-caps: normal; font-weight: 400; letter-spacing: normal; orphans: 2; text-align: center; text-indent: 0px; text-transform: none; widows: 2; word-spacing: 0px; -webkit-text-stroke-width: 0px; background-color: rgb(248, 249, 250); text-decoration-thickness: initial; text-decoration-style: initial; text-decoration-color: initial; float: none; display: inline !important;&quot;&gt;output&lt;/span&gt;&#10;&#10;" style="whiteSpace=wrap;html=1;rounded=1;" parent="1" vertex="1">
                    <mxGeometry x="800" y="49" width="140" height="70" as="geometry"/>
                </mxCell>
                <mxCell id="6nQL7Iius_xLlvTY1DOX-13" style="edgeStyle=none;html=1;labelBackgroundColor=none;startFill=0;startSize=8;endFill=1;endSize=8;fontFamily=Verdana;fontSize=12;" parent="1" edge="1">
                    <mxGeometry relative="1" as="geometry">
                        <mxPoint x="610" y="253" as="sourcePoint"/>
                        <mxPoint x="800" y="253.73076923076917" as="targetPoint"/>
                    </mxGeometry>
                </mxCell>
                <mxCell id="6nQL7Iius_xLlvTY1DOX-14" value="클립/언클립 클릭" style="text;html=1;strokeColor=none;fillColor=none;align=center;verticalAlign=middle;whiteSpace=wrap;rounded=0;" parent="1" vertex="1">
                    <mxGeometry x="190" y="180" width="110" height="30" as="geometry"/>
                </mxCell>
                <mxCell id="6nQL7Iius_xLlvTY1DOX-15" value="기사 검색" style="text;html=1;strokeColor=none;fillColor=none;align=center;verticalAlign=middle;whiteSpace=wrap;rounded=0;" parent="1" vertex="1">
                    <mxGeometry x="190" y="283.5" width="100" height="26.5" as="geometry"/>
                </mxCell>
                <mxCell id="6nQL7Iius_xLlvTY1DOX-16" value="input(sroll)" style="whiteSpace=wrap;html=1;rounded=0;shadow=0;comic=0;labelBackgroundColor=none;strokeWidth=1;fontFamily=Verdana;fontSize=12;align=center;" parent="1" vertex="1">
                    <mxGeometry x="320" y="330" width="110" height="39" as="geometry"/>
                </mxCell>
                <mxCell id="6nQL7Iius_xLlvTY1DOX-18" value="스크롤 동작" style="text;html=1;strokeColor=none;fillColor=none;align=center;verticalAlign=middle;whiteSpace=wrap;rounded=0;" parent="1" vertex="1">
                    <mxGeometry x="325" y="380" width="100" height="26.5" as="geometry"/>
                </mxCell>
                <mxCell id="6nQL7Iius_xLlvTY1DOX-19" style="edgeStyle=orthogonalEdgeStyle;rounded=0;orthogonalLoop=1;jettySize=auto;html=1;exitX=0.75;exitY=0;exitDx=0;exitDy=0;entryX=1;entryY=0.25;entryDx=0;entryDy=0;" parent="1" source="6nQL7Iius_xLlvTY1DOX-16" target="6nQL7Iius_xLlvTY1DOX-16" edge="1">
                    <mxGeometry relative="1" as="geometry"/>
                </mxCell>
                <mxCell id="6nQL7Iius_xLlvTY1DOX-21" value="" style="endArrow=classic;startArrow=classic;html=1;rounded=0;entryX=1;entryY=1;entryDx=0;entryDy=0;exitX=0.436;exitY=0;exitDx=0;exitDy=0;exitPerimeter=0;" parent="1" source="6nQL7Iius_xLlvTY1DOX-16" target="6nQL7Iius_xLlvTY1DOX-4" edge="1">
                    <mxGeometry width="50" height="50" relative="1" as="geometry">
                        <mxPoint x="300" y="330" as="sourcePoint"/>
                        <mxPoint x="350" y="280" as="targetPoint"/>
                    </mxGeometry>
                </mxCell>
                <mxCell id="6nQL7Iius_xLlvTY1DOX-24" value="" style="endArrow=classic;startArrow=classic;html=1;rounded=0;" parent="1" edge="1">
                    <mxGeometry width="50" height="50" relative="1" as="geometry">
                        <mxPoint x="430" y="329" as="sourcePoint"/>
                        <mxPoint x="480" y="279" as="targetPoint"/>
                    </mxGeometry>
                </mxCell>
                <mxCell id="6nQL7Iius_xLlvTY1DOX-28" value="" style="ellipse;whiteSpace=wrap;html=1;aspect=fixed;rounded=1;" parent="1" vertex="1">
                    <mxGeometry x="650" y="320" width="80" height="80" as="geometry"/>
                </mxCell>
                <mxCell id="6nQL7Iius_xLlvTY1DOX-29" value="" style="endArrow=classic;html=1;rounded=0;" parent="1" target="6nQL7Iius_xLlvTY1DOX-11" edge="1">
                    <mxGeometry width="50" height="50" relative="1" as="geometry">
                        <mxPoint x="722" y="340" as="sourcePoint"/>
                        <mxPoint x="772" y="290" as="targetPoint"/>
                    </mxGeometry>
                </mxCell>
                <mxCell id="6nQL7Iius_xLlvTY1DOX-31" value="Search history" style="text;html=1;strokeColor=none;fillColor=none;align=center;verticalAlign=middle;whiteSpace=wrap;rounded=0;" parent="1" vertex="1">
                    <mxGeometry x="660" y="345" width="60" height="30" as="geometry"/>
                </mxCell>
                <mxCell id="6nQL7Iius_xLlvTY1DOX-32" value="" style="endArrow=classic;startArrow=classic;html=1;rounded=0;" parent="1" target="6nQL7Iius_xLlvTY1DOX-28" edge="1">
                    <mxGeometry width="50" height="50" relative="1" as="geometry">
                        <mxPoint x="600" y="270" as="sourcePoint"/>
                        <mxPoint x="640" y="283.5" as="targetPoint"/>
                    </mxGeometry>
                </mxCell>
                <mxCell id="6nQL7Iius_xLlvTY1DOX-33" value="" style="curved=1;endArrow=classic;html=1;rounded=0;entryX=0;entryY=0.75;entryDx=0;entryDy=0;entryPerimeter=0;exitX=0.936;exitY=0.974;exitDx=0;exitDy=0;exitPerimeter=0;" parent="1" source="6nQL7Iius_xLlvTY1DOX-4" target="6nQL7Iius_xLlvTY1DOX-28" edge="1">
                    <mxGeometry width="50" height="50" relative="1" as="geometry">
                        <mxPoint x="375" y="500" as="sourcePoint"/>
                        <mxPoint x="425" y="450" as="targetPoint"/>
                        <Array as="points">
                            <mxPoint x="570" y="290"/>
                            <mxPoint x="375" y="450"/>
                        </Array>
                    </mxGeometry>
                </mxCell>
                <mxCell id="6nQL7Iius_xLlvTY1DOX-34" value="로컬스토리지" style="text;html=1;strokeColor=none;fillColor=none;align=center;verticalAlign=middle;whiteSpace=wrap;rounded=0;" parent="1" vertex="1">
                    <mxGeometry x="650" y="406.5" width="100" height="26.5" as="geometry"/>
                </mxCell>
                <mxCell id="6nQL7Iius_xLlvTY1DOX-35" value="Text" style="text;html=1;strokeColor=none;fillColor=none;align=center;verticalAlign=middle;whiteSpace=wrap;rounded=0;" parent="1" vertex="1">
                    <mxGeometry x="500" y="270" width="60" height="30" as="geometry"/>
                </mxCell>
                <mxCell id="6nQL7Iius_xLlvTY1DOX-36" value="routing /clip" style="text;html=1;strokeColor=none;fillColor=none;align=center;verticalAlign=middle;whiteSpace=wrap;rounded=0;" parent="1" vertex="1">
                    <mxGeometry x="832" y="89" width="80" height="30" as="geometry"/>
                </mxCell>
                <mxCell id="6nQL7Iius_xLlvTY1DOX-37" value="routing /clip" style="text;html=1;strokeColor=none;fillColor=none;align=center;verticalAlign=middle;whiteSpace=wrap;rounded=0;" parent="1" vertex="1">
                    <mxGeometry x="821" y="260" width="80" height="30" as="geometry"/>
                </mxCell>
                <mxCell id="6nQL7Iius_xLlvTY1DOX-38" value="로컬스토리지" style="text;html=1;strokeColor=none;fillColor=none;align=center;verticalAlign=middle;whiteSpace=wrap;rounded=0;" parent="1" vertex="1">
                    <mxGeometry x="484" y="119" width="100" height="26.5" as="geometry"/>
                </mxCell>
            </root>
        </mxGraphModel>
    </diagram>
</mxfile>